<svg width="32" height="32" viewBox="0 0 32 32" fill="none" xmlns="http://www.w3.org/2000/svg">
<path d="M16 32C24.8366 32 32 24.8366 32 16C32 7.16344 24.8366 0 16 0C7.16344 0 0 7.16344 0 16C0 24.8366 7.16344 32 16 32Z" fill="#8A3FFC"/>
<path d="M21.8333 11H21V9.33333C21 8.875 20.625 8.5 20.1667 8.5C19.7083 8.5 19.3333 8.875 19.3333 9.33333V11H18.5C17.5833 11 16.8333 11.75 16.8333 12.6667V19.3333C16.8333 20.25 17.5833 21 18.5 21H19.3333V22.6667C19.3333 23.125 19.7083 23.5 20.1667 23.5C20.625 23.5 21 23.125 21 22.6667V21H21.8333C22.75 21 23.5 20.25 23.5 19.3333V12.6667C23.5 11.75 22.75 11 21.8333 11ZM18.5 19.3333V12.6667H21.8333V19.3333H18.5Z" fill="white"/>
<path d="M13.5 14.3333H12.6667V9.33333C12.6667 8.875 12.2917 8.5 11.8333 8.5C11.375 8.5 11 8.875 11 9.33333V14.3333H10.1667C9.25 14.3333 8.5 15.0833 8.5 16V19.3333C8.5 20.25 9.25 21 10.1667 21H11V22.6667C11 23.125 11.375 23.5 11.8333 23.5C12.2917 23.5 12.6667 23.125 12.6667 22.6667V21H13.5C14.4167 21 15.1667 20.25 15.1667 19.3333V16C15.1667 15.0833 14.4167 14.3333 13.5 14.3333ZM10.1667 19.3333V16H13.5V19.3333H10.1667Z" fill="white"/>
</svg>
