<svg width="32" height="32" viewBox="0 0 32 32" fill="none" xmlns="http://www.w3.org/2000/svg">
<path d="M16 32C24.8366 32 32 24.8366 32 16C32 7.16344 24.8366 0 16 0C7.16344 0 0 7.16344 0 16C0 24.8366 7.16344 32 16 32Z" fill="#13B2CF"/>
<path d="M24.8717 15.8001C24.8717 21.6421 21.285 23.5169 19.3829 21.8594C17.8342 20.5008 17.3722 17.6206 15.0354 17.3217C12.0737 16.9685 11.802 20.9084 9.84561 20.9084C7.56317 20.9084 7.12842 17.6206 7.12842 15.9088C7.12842 14.1698 7.61751 11.8058 9.54671 11.8058C11.802 11.8058 11.9378 15.2023 14.7637 15.0121C17.5624 14.8219 17.6168 11.2896 19.4645 9.79512C21.0676 8.46369 24.8717 9.87663 24.8717 15.8001Z" fill="white"/>
</svg>
